<?xml version="1.0" encoding="UTF-8" standalone="no"?>
<!DOCTYPE svg PUBLIC "-//W3C//DTD SVG 1.1//EN"
 "http://www.w3.org/Graphics/SVG/1.1/DTD/svg11.dtd">
<!-- Generated by graphviz version 2.42.3 (20191010.1750)
 -->
<!-- Title: broker Pages: 1 -->
<svg width="351pt" height="343pt"
 viewBox="0.00 0.00 351.34 343.00" xmlns="http://www.w3.org/2000/svg" xmlns:xlink="http://www.w3.org/1999/xlink">
<g id="graph0" class="graph" transform="scale(1 1) rotate(0) translate(4 339)">
<title>broker</title>
<polygon fill="white" stroke="transparent" points="-4,4 -4,-339 347.34,-339 347.34,4 -4,4"/>
<!-- root -->
<g id="node1" class="node">
<title>root</title>
<polygon fill="none" stroke="black" points="39.12,-268.5 39.12,-334.5 191.99,-334.5 191.99,-268.5 39.12,-268.5"/>
<text text-anchor="middle" x="115.56" y="-319.3" font-family="Times,serif" font-size="14.00">RabbitMQ 3.8.3</text>
<polyline fill="none" stroke="black" points="39.12,-312.5 191.99,-312.5 "/>
<text text-anchor="middle" x="115.56" y="-297.3" font-family="Times,serif" font-size="14.00">http://localhost:8080/api</text>
<polyline fill="none" stroke="black" points="39.12,-290.5 191.99,-290.5 "/>
<text text-anchor="middle" x="115.56" y="-275.3" font-family="Times,serif" font-size="14.00">rabbit@my&#45;rabbit</text>
</g>
<!-- vhost_/ -->
<g id="node2" class="node">
<title>vhost_/</title>
<polygon fill="none" stroke="black" points="160.1,-231 71.01,-231 71.01,-195 160.1,-195 160.1,-231"/>
<text text-anchor="middle" x="115.56" y="-208.8" font-family="Times,serif" font-size="14.00">Virtual host /</text>
</g>
<!-- root&#45;&#45;vhost_/ -->
<g id="edge1" class="edge">
<title>root&#45;&#45;vhost_/</title>
<path fill="none" stroke="black" d="M115.56,-268.29C115.56,-255.8 115.56,-242 115.56,-231.43"/>
</g>
<!-- exchange_classify -->
<g id="node3" class="node">
<title>exchange_classify</title>
<polygon fill="none" stroke="black" points="83,-91.5 83,-157.5 148.11,-157.5 148.11,-91.5 83,-91.5"/>
<text text-anchor="middle" x="115.56" y="-142.3" font-family="Times,serif" font-size="14.00">classify</text>
<polyline fill="none" stroke="black" points="83,-135.5 148.11,-135.5 "/>
<text text-anchor="middle" x="115.56" y="-120.3" font-family="Times,serif" font-size="14.00">fanout</text>
<polyline fill="none" stroke="black" points="83,-113.5 148.11,-113.5 "/>
<text text-anchor="middle" x="96.06" y="-98.3" font-family="Times,serif" font-size="14.00">D</text>
<polyline fill="none" stroke="black" points="109.11,-91.5 109.11,-113.5 "/>
<text text-anchor="middle" x="118.86" y="-98.3" font-family="Times,serif" font-size="14.00"> </text>
<polyline fill="none" stroke="black" points="128.61,-91.5 128.61,-113.5 "/>
<text text-anchor="middle" x="138.36" y="-98.3" font-family="Times,serif" font-size="14.00"> </text>
</g>
<!-- vhost_/&#45;&#45;exchange_classify -->
<g id="edge2" class="edge">
<title>vhost_/&#45;&#45;exchange_classify:n</title>
<path fill="none" stroke="black" d="M115.56,-194.98C115.56,-184.35 115.56,-170.38 115.56,-158"/>
</g>
<!-- exchange_final -->
<g id="node4" class="node">
<title>exchange_final</title>
<polygon fill="none" stroke="black" points="0,-91.5 0,-157.5 65.11,-157.5 65.11,-91.5 0,-91.5"/>
<text text-anchor="middle" x="32.56" y="-142.3" font-family="Times,serif" font-size="14.00">final</text>
<polyline fill="none" stroke="black" points="0,-135.5 65.11,-135.5 "/>
<text text-anchor="middle" x="32.56" y="-120.3" font-family="Times,serif" font-size="14.00">fanout</text>
<polyline fill="none" stroke="black" points="0,-113.5 65.11,-113.5 "/>
<text text-anchor="middle" x="13.06" y="-98.3" font-family="Times,serif" font-size="14.00">D</text>
<polyline fill="none" stroke="black" points="26.11,-91.5 26.11,-113.5 "/>
<text text-anchor="middle" x="35.86" y="-98.3" font-family="Times,serif" font-size="14.00"> </text>
<polyline fill="none" stroke="black" points="45.61,-91.5 45.61,-113.5 "/>
<text text-anchor="middle" x="55.36" y="-98.3" font-family="Times,serif" font-size="14.00"> </text>
</g>
<!-- vhost_/&#45;&#45;exchange_final -->
<g id="edge3" class="edge">
<title>vhost_/&#45;&#45;exchange_final:n</title>
<path fill="none" stroke="black" d="M70.65,-200.14C51.1,-192 32.56,-178.8 32.56,-158"/>
</g>
<!-- exchange_raw -->
<g id="node5" class="node">
<title>exchange_raw</title>
<polygon fill="none" stroke="black" points="169,-91.5 169,-157.5 234.11,-157.5 234.11,-91.5 169,-91.5"/>
<text text-anchor="middle" x="201.56" y="-142.3" font-family="Times,serif" font-size="14.00">raw</text>
<polyline fill="none" stroke="black" points="169,-135.5 234.11,-135.5 "/>
<text text-anchor="middle" x="201.56" y="-120.3" font-family="Times,serif" font-size="14.00">fanout</text>
<polyline fill="none" stroke="black" points="169,-113.5 234.11,-113.5 "/>
<text text-anchor="middle" x="182.06" y="-98.3" font-family="Times,serif" font-size="14.00">D</text>
<polyline fill="none" stroke="black" points="195.11,-91.5 195.11,-113.5 "/>
<text text-anchor="middle" x="204.86" y="-98.3" font-family="Times,serif" font-size="14.00"> </text>
<polyline fill="none" stroke="black" points="214.61,-91.5 214.61,-113.5 "/>
<text text-anchor="middle" x="224.36" y="-98.3" font-family="Times,serif" font-size="14.00"> </text>
</g>
<!-- vhost_/&#45;&#45;exchange_raw -->
<g id="edge4" class="edge">
<title>vhost_/&#45;&#45;exchange_raw:n</title>
<path fill="none" stroke="black" d="M160.32,-201.27C181.21,-193.32 201.56,-179.95 201.56,-158"/>
</g>
<!-- boundqueue_classify -->
<g id="node6" class="node">
<title>boundqueue_classify</title>
<polygon fill="none" stroke="black" points="83,-0.5 83,-44.5 148.11,-44.5 148.11,-0.5 83,-0.5"/>
<text text-anchor="middle" x="115.56" y="-29.3" font-family="Times,serif" font-size="14.00">classify</text>
<polyline fill="none" stroke="black" points="83,-22.5 148.11,-22.5 "/>
<text text-anchor="middle" x="96.06" y="-7.3" font-family="Times,serif" font-size="14.00">D</text>
<polyline fill="none" stroke="black" points="109.11,-0.5 109.11,-22.5 "/>
<text text-anchor="middle" x="118.86" y="-7.3" font-family="Times,serif" font-size="14.00"> </text>
<polyline fill="none" stroke="black" points="128.61,-0.5 128.61,-22.5 "/>
<text text-anchor="middle" x="138.36" y="-7.3" font-family="Times,serif" font-size="14.00"> </text>
</g>
<!-- exchange_classify&#45;&#45;boundqueue_classify -->
<g id="edge5" class="edge">
<title>exchange_classify&#45;&#45;boundqueue_classify:n</title>
<path fill="none" stroke="black" d="M115.56,-91.42C115.56,-77.2 115.56,-60.26 115.56,-45"/>
</g>
<!-- boundqueue_results -->
<g id="node9" class="node">
<title>boundqueue_results</title>
<polygon fill="none" stroke="black" points="0,-0.5 0,-44.5 65.11,-44.5 65.11,-0.5 0,-0.5"/>
<text text-anchor="middle" x="32.56" y="-29.3" font-family="Times,serif" font-size="14.00">results</text>
<polyline fill="none" stroke="black" points="0,-22.5 65.11,-22.5 "/>
<text text-anchor="middle" x="13.06" y="-7.3" font-family="Times,serif" font-size="14.00">D</text>
<polyline fill="none" stroke="black" points="26.11,-0.5 26.11,-22.5 "/>
<text text-anchor="middle" x="35.86" y="-7.3" font-family="Times,serif" font-size="14.00"> </text>
<polyline fill="none" stroke="black" points="45.61,-0.5 45.61,-22.5 "/>
<text text-anchor="middle" x="55.36" y="-7.3" font-family="Times,serif" font-size="14.00"> </text>
</g>
<!-- exchange_final&#45;&#45;boundqueue_results -->
<g id="edge6" class="edge">
<title>exchange_final&#45;&#45;boundqueue_results:n</title>
<path fill="none" stroke="black" d="M32.56,-91.42C32.56,-77.2 32.56,-60.26 32.56,-45"/>
</g>
<!-- exchange_raw&#45;&#45;boundqueue_classify -->
<g id="edge7" class="edge">
<title>exchange_raw&#45;&#45;boundqueue_classify:n</title>
<path fill="none" stroke="black" d="M168.55,-95.37C144.3,-74.39 115.56,-48.74 115.56,-45"/>
<text text-anchor="middle" x="148.05" y="-65" font-family="Times,serif" font-size="10.00">raw</text>
</g>
<!-- boundqueue_raw.length2 -->
<g id="node7" class="node">
<title>boundqueue_raw.length2</title>
<polygon fill="none" stroke="black" points="261.77,-0.5 261.77,-44.5 343.34,-44.5 343.34,-0.5 261.77,-0.5"/>
<text text-anchor="middle" x="302.56" y="-29.3" font-family="Times,serif" font-size="14.00">raw.length2</text>
<polyline fill="none" stroke="black" points="261.77,-22.5 343.34,-22.5 "/>
<text text-anchor="middle" x="277.33" y="-7.3" font-family="Times,serif" font-size="14.00">D</text>
<polyline fill="none" stroke="black" points="292.88,-0.5 292.88,-22.5 "/>
<text text-anchor="middle" x="305.13" y="-7.3" font-family="Times,serif" font-size="14.00"> </text>
<polyline fill="none" stroke="black" points="317.38,-0.5 317.38,-22.5 "/>
<text text-anchor="middle" x="330.13" y="-7.3" font-family="Times,serif" font-size="14.00"> </text>
</g>
<!-- exchange_raw&#45;&#45;boundqueue_raw.length2 -->
<g id="edge8" class="edge">
<title>exchange_raw&#45;&#45;boundqueue_raw.length2:n</title>
<path fill="none" stroke="black" d="M234.35,-113.33C263.84,-101.9 302.56,-80.2 302.56,-45"/>
</g>
<!-- boundqueue_raw.weight -->
<g id="node8" class="node">
<title>boundqueue_raw.weight</title>
<polygon fill="none" stroke="black" points="165.71,-0.5 165.71,-44.5 243.4,-44.5 243.4,-0.5 165.71,-0.5"/>
<text text-anchor="middle" x="204.56" y="-29.3" font-family="Times,serif" font-size="14.00">raw.weight</text>
<polyline fill="none" stroke="black" points="165.71,-22.5 243.4,-22.5 "/>
<text text-anchor="middle" x="180.77" y="-7.3" font-family="Times,serif" font-size="14.00">D</text>
<polyline fill="none" stroke="black" points="195.83,-0.5 195.83,-22.5 "/>
<text text-anchor="middle" x="207.58" y="-7.3" font-family="Times,serif" font-size="14.00"> </text>
<polyline fill="none" stroke="black" points="219.33,-0.5 219.33,-22.5 "/>
<text text-anchor="middle" x="231.08" y="-7.3" font-family="Times,serif" font-size="14.00"> </text>
</g>
<!-- exchange_raw&#45;&#45;boundqueue_raw.weight -->
<g id="edge9" class="edge">
<title>exchange_raw&#45;&#45;boundqueue_raw.weight:n</title>
<path fill="none" stroke="black" d="M203.33,-91.43C203.98,-77.21 204.56,-60.28 204.56,-45"/>
</g>
</g>
</svg>
